<svg width="20" height="22" viewBox="0 0 20 22" fill="none" xmlns="http://www.w3.org/2000/svg">
<path d="M8.75 7.99997C8.33579 7.99997 8 8.33576 8 8.74997C8 9.16418 8.33579 9.49997 8.75 9.49997V8.74997V7.99997ZM9.75 8.74997H10.5C10.5 8.33576 10.1642 7.99997 9.75 7.99997V8.74997ZM9 15.75C9 16.1642 9.33579 16.5 9.75 16.5C10.1642 16.5 10.5 16.1642 10.5 15.75H9.75H9ZM2.82846 4.18932L3.21063 4.83465L2.82846 4.18932ZM2.82846 17.3107L3.21063 16.6653H3.21063L2.82846 17.3107ZM11.8285 20.1788L11.4463 19.5334L11.8285 20.1788ZM7.67154 20.1788L7.28937 20.8241L7.67154 20.1788ZM16.6715 17.3107L17.0537 17.956L16.6715 17.3107ZM16.6715 4.18932L16.2894 4.83465L16.6715 4.18932ZM11.8285 1.32125L11.4463 1.96658L11.8285 1.32125ZM7.67154 1.32125L7.28937 0.675918L7.67154 1.32125ZM8.75 8.74997V9.49997H9.75V8.74997V7.99997H8.75V8.74997ZM9.75 8.74997H9V15.75H9.75H10.5V8.74997H9.75ZM11.8285 1.32125L11.4463 1.96658L16.2894 4.83465L16.6715 4.18932L17.0537 3.54399L12.2106 0.675918L11.8285 1.32125ZM18.75 7.88192H18V13.6181H18.75H19.5V7.88192H18.75ZM16.6715 17.3107L16.2894 16.6653L11.4463 19.5334L11.8285 20.1788L12.2106 20.8241L17.0537 17.956L16.6715 17.3107ZM7.67154 20.1788L8.0537 19.5334L3.21063 16.6653L2.82846 17.3107L2.4463 17.956L7.28937 20.8241L7.67154 20.1788ZM0.75 13.6181H1.5V7.88192H0.75H0V13.6181H0.75ZM2.82846 4.18932L3.21063 4.83465L8.0537 1.96658L7.67154 1.32125L7.28937 0.675918L2.4463 3.54399L2.82846 4.18932ZM0.75 7.88192H1.5C1.5 6.61735 2.15779 5.45814 3.21063 4.83465L2.82846 4.18932L2.4463 3.54399C0.926819 4.44383 0 6.09985 0 7.88192H0.75ZM2.82846 17.3107L3.21063 16.6653C2.15779 16.0419 1.5 14.8827 1.5 13.6181H0.75H0C0 15.4002 0.926819 17.0562 2.4463 17.956L2.82846 17.3107ZM11.8285 20.1788L11.4463 19.5334C10.3958 20.1555 9.10419 20.1555 8.0537 19.5334L7.67154 20.1788L7.28937 20.8241C8.81119 21.7253 10.6888 21.7253 12.2106 20.8241L11.8285 20.1788ZM18.75 13.6181H18C18 14.8827 17.3422 16.0419 16.2894 16.6653L16.6715 17.3107L17.0537 17.956C18.5732 17.0562 19.5 15.4002 19.5 13.6181H18.75ZM16.6715 4.18932L16.2894 4.83465C17.3422 5.45814 18 6.61735 18 7.88192H18.75H19.5C19.5 6.09985 18.5732 4.44383 17.0537 3.54399L16.6715 4.18932ZM11.8285 1.32125L12.2106 0.675918C10.6888 -0.225306 8.81119 -0.225306 7.28937 0.675918L7.67154 1.32125L8.0537 1.96658C9.10419 1.34447 10.3958 1.34447 11.4463 1.96658L11.8285 1.32125Z" fill="#28303F"/>
</svg>
