<svg width="24" height="24" viewBox="0 0 24 24" fill="none" xmlns="http://www.w3.org/2000/svg">
<path d="M5.95756 22.0001C5.28843 22.0135 4.62375 21.8886 4.00514 21.6332C3.38654 21.3777 2.82737 20.9973 2.36265 20.5157C1.89794 20.0341 1.5377 19.4617 1.30452 18.8343C1.07134 18.207 0.970245 17.5383 1.00756 16.8701C1.04364 15.7889 1.42939 14.7486 2.10691 13.9053C2.78442 13.062 3.71717 12.4611 4.76516 12.1929C5.81315 11.9247 6.91985 12.0037 7.91918 12.4178C8.91851 12.832 9.75656 13.5591 10.3076 14.4901C10.9929 14.158 11.7461 13.9902 12.5076 14.0001C13.084 14.0019 13.6557 14.1034 14.1976 14.3001C13.8993 13.3282 13.7509 12.3166 13.7576 11.3001C13.7535 10.3066 13.9019 9.31847 14.1976 8.37006V7.18006C13.6536 7.42456 13.064 7.55097 12.4676 7.55097C11.8712 7.55097 11.2815 7.42456 10.7376 7.18006C10.1489 6.77399 9.72464 6.17099 9.54128 5.47975C9.35793 4.78851 9.42754 4.05451 9.73756 3.41006C10.1876 2.47006 11.5276 1.59006 14.2476 1.89006C15.5176 2.02006 17.9976 4.46006 18.2476 4.72006C19.7927 6.23524 20.9322 8.11454 21.5613 10.1852C22.1904 12.2559 22.2888 14.4514 21.8476 16.5701C21.6808 17.5394 21.4435 18.4953 21.1376 19.4301C20.6076 21.0501 18.6676 22.1701 16.3076 22.1701C13.7276 22.1701 5.95756 22.0001 5.95756 22.0001Z" stroke="white" stroke-width="1.5" stroke-linecap="round" stroke-linejoin="round"/>
<path d="M10.3076 14.4901C9.73211 14.812 9.27873 15.3146 9.01758 15.9201" stroke="white" stroke-width="1.5" stroke-linecap="round" stroke-linejoin="round"/>
<path d="M14.1676 14.29C14.1676 14.29 15.0676 14.49 15.8376 15.92" stroke="white" stroke-width="1.5" stroke-linecap="round" stroke-linejoin="round"/>
<path d="M9.50757 5.46008C9.50757 6.12008 13.9476 6.24008 13.5076 4.14008" stroke="white" stroke-width="1.5" stroke-linecap="round" stroke-linejoin="round"/>
</svg>
