<svg width="18" height="20" viewBox="0 0 18 20" fill="none" xmlns="http://www.w3.org/2000/svg">
<path d="M6.46973 0.909363C7.94217 -0.303096 10.0578 -0.303098 11.5303 0.909363L16.5303 5.02655C17.4605 5.79252 18 6.93962 18 8.15057V15.967C18 18.1944 16.2091 20.0002 14 20.0002H4C1.79086 20.0002 0 18.1944 0 15.967V8.15057C0 6.93962 0.539512 5.79252 1.46973 5.02655L6.46973 0.909363ZM13.6885 13.7033C13.5245 13.323 13.0835 13.1477 12.7031 13.3117C11.2139 13.9539 10.1137 14.2475 9.03809 14.2502C7.96191 14.2528 6.83524 13.964 5.29297 13.3098C4.91166 13.148 4.47135 13.3259 4.30957 13.7072C4.1478 14.0885 4.32571 14.5288 4.70703 14.6906C6.3359 15.3816 7.67723 15.7535 9.04199 15.7502C10.4076 15.7468 11.7224 15.3676 13.2969 14.6887C13.6772 14.5246 13.8524 14.0836 13.6885 13.7033Z" fill="#111111"/>
</svg>
