<svg width="22" height="22" viewBox="0 0 22 22" fill="none" xmlns="http://www.w3.org/2000/svg">
<path d="M6.75012 14.75C9.92166 16.0955 11.6865 16.0711 14.7501 14.75M14.9305 20.75H6.56977C4.26103 20.75 2.38942 18.964 2.38942 16.7608V11.883C2.38942 11.1748 2.0946 10.4956 1.56981 9.9948C0.353927 8.8345 0.511992 6.91205 1.90263 5.94692L8.29136 1.513C9.7572 0.495668 11.743 0.495668 13.2089 1.513L19.5976 5.94691C20.9883 6.91205 21.1463 8.8345 19.9304 9.9948C19.4056 10.4956 19.1108 11.1748 19.1108 11.883V16.7608C19.1108 18.964 17.2392 20.75 14.9305 20.75Z" stroke="white" stroke-width="1.5" stroke-linecap="round"/>
</svg>
