<svg width="24" height="24" viewBox="0 0 24 24" fill="none" xmlns="http://www.w3.org/2000/svg">
<path d="M21.4219 18.6289C22.193 19.4 22.193 20.6508 21.4219 21.4219C20.6508 22.193 19.4 22.193 18.6289 21.4219L16.7568 19.5488C17.8468 18.7938 18.7938 17.8468 19.5488 16.7568L21.4219 18.6289ZM10.5 1.25C15.6086 1.25 19.75 5.39137 19.75 10.5C19.75 15.6086 15.6086 19.75 10.5 19.75C5.39137 19.75 1.25 15.6086 1.25 10.5C1.25 5.39137 5.39137 1.25 10.5 1.25ZM10.5 2.75C6.21979 2.75 2.75 6.21979 2.75 10.5C2.75 14.7802 6.21979 18.25 10.5 18.25C14.7802 18.25 18.25 14.7802 18.25 10.5C18.25 6.21979 14.7802 2.75 10.5 2.75Z" fill="white"/>
</svg>
