<svg width="20" height="20" viewBox="0 0 20 20" fill="none" xmlns="http://www.w3.org/2000/svg">
<path fill-rule="evenodd" clip-rule="evenodd" d="M7.84013 3.06253C7.48071 3.96842 7.18818 5.0688 6.99051 6.30415C7.9469 6.21655 8.95737 6.16992 10 6.16992C11.0427 6.16992 12.0531 6.21655 13.0095 6.30415C12.8119 5.0688 12.5193 3.96842 12.1599 3.06253C11.8144 2.19183 11.4221 1.53861 11.0253 1.11559C10.63 0.694197 10.2833 0.552662 10 0.552662C9.71676 0.552662 9.37004 0.694197 8.97475 1.11559C8.57794 1.53861 8.18559 2.19183 7.84013 3.06253ZM6.42925 2.49357C5.98078 3.62389 5.63666 4.9855 5.42575 6.49077C4.38755 6.64513 3.44011 6.8511 2.61837 7.09963C1.66224 7.38882 0.833125 7.74837 0.22609 8.18245C0.149399 8.23728 0.0737015 8.29525 4.58442e-05 8.35635C0.670093 4.18086 3.85114 0.853597 7.9309 1.26441e-06C7.91066 0.0207616 7.89059 0.0417508 7.8707 0.0629586C7.29791 0.673576 6.81709 1.51604 6.42925 2.49357ZM12.0691 0C12.0894 0.0207607 12.1094 0.0417504 12.1293 0.0629586C12.7021 0.673576 13.183 1.51604 13.5708 2.49357C14.0193 3.62389 14.3634 4.9855 14.5743 6.49077C15.6125 6.64513 16.5599 6.8511 17.3817 7.09963C18.3378 7.38882 19.1669 7.74837 19.774 8.18245C19.8506 8.23729 19.9263 8.29525 20 8.35636C19.33 4.18086 16.1489 0.853595 12.0691 0ZM20 11.6433C19.9264 11.7045 19.8507 11.7624 19.774 11.8173C19.1669 12.2514 18.3378 12.6109 17.3817 12.9001C16.5599 13.1486 15.6125 13.3546 14.5743 13.509C14.3634 15.0142 14.0193 16.3758 13.5708 17.5062C13.183 18.4837 12.7021 19.3262 12.1293 19.9368C12.1093 19.9581 12.0892 19.9792 12.0688 20C16.1488 19.1465 19.3301 15.8191 20 11.6433ZM7.9312 20C7.91086 19.9792 7.89069 19.9581 7.8707 19.9368C7.29791 19.3262 6.81709 18.4837 6.42925 17.5062C5.98078 16.3758 5.63666 15.0142 5.42575 13.509C4.38755 13.3546 3.44011 13.1486 2.61837 12.9001C1.66223 12.6109 0.833125 12.2514 0.22609 11.8173C0.149383 11.7624 0.07367 11.7045 0 11.6433C0.669965 15.8191 3.8512 19.1465 7.9312 20ZM3.05502 11.4327C3.6995 11.6276 4.44103 11.7966 5.25833 11.9322C5.21206 11.304 5.18805 10.6581 5.18805 9.99986C5.18805 9.3416 5.21206 8.6957 5.25833 8.06752C4.44103 8.20311 3.6995 8.37208 3.05502 8.567C2.1779 8.83229 1.52343 9.13296 1.10521 9.43202C0.667248 9.74519 0.629332 9.94818 0.629332 9.99986C0.629332 10.0515 0.667248 10.2545 1.10521 10.5677C1.52343 10.8668 2.1779 11.1674 3.05502 11.4327ZM6.70762 9.99986C6.70762 10.7365 6.73947 11.4518 6.79938 12.1379C7.79829 12.2411 8.87486 12.2978 10 12.2978C11.1252 12.2978 12.2018 12.2411 13.2007 12.1379C13.2606 11.4518 13.2924 10.7365 13.2924 9.99986C13.2924 9.26328 13.2606 8.54792 13.2007 7.86187C12.2018 7.7586 11.1252 7.7019 10 7.7019C8.87486 7.7019 7.79829 7.7586 6.79938 7.86187C6.73947 8.54791 6.70762 9.26328 6.70762 9.99986ZM7.84013 16.9372C7.48071 16.0313 7.18818 14.9309 6.99051 13.6956C7.9469 13.7832 8.95737 13.8298 10 13.8298C11.0427 13.8298 12.0531 13.7832 13.0095 13.6956C12.8119 14.9309 12.5193 16.0313 12.1599 16.9372C11.8144 17.8079 11.4221 18.4611 11.0253 18.8841C10.63 19.3055 10.2833 19.4471 10 19.4471C9.71676 19.4471 9.37004 19.3055 8.97475 18.8841C8.57794 18.4611 8.18559 17.8079 7.84013 16.9372ZM16.945 11.4327C16.3005 11.6276 15.559 11.7966 14.7417 11.9322C14.788 11.304 14.812 10.6581 14.812 9.99986C14.812 9.3416 14.788 8.6957 14.7417 8.06752C15.559 8.20311 16.3005 8.37208 16.945 8.567C17.8221 8.83229 18.4766 9.13296 18.8948 9.43202C19.3328 9.74519 19.3707 9.94818 19.3707 9.99986C19.3707 10.0515 19.3328 10.2545 18.8948 10.5677C18.4766 10.8668 17.8221 11.1674 16.945 11.4327Z" fill="#111111"/>
</svg>
