<svg width="12" height="10" viewBox="0 0 12 10" fill="none" xmlns="http://www.w3.org/2000/svg">
<path fill-rule="evenodd" clip-rule="evenodd" d="M11.2002 4.8C11.2002 5.13137 10.9316 5.4 10.6002 5.4L2.08986 5.4L5.41606 8.5675C5.65492 8.79718 5.66237 9.177 5.43269 9.41586C5.20302 9.65473 4.82319 9.66217 4.58433 9.4325L0.184329 5.2325C0.066682 5.11938 0.000194094 4.96321 0.000194101 4.8C0.000194108 4.63679 0.066682 4.48062 0.184329 4.3675L4.58433 0.167501C4.82319 -0.0621754 5.20302 -0.0547279 5.43269 0.184135C5.66237 0.422998 5.65492 0.802824 5.41606 1.0325L2.08986 4.2L10.6002 4.2C10.9316 4.2 11.2002 4.46863 11.2002 4.8Z" fill="#0F172A"/>
</svg>
