<svg width="38" height="38" viewBox="0 0 38 38" fill="none" xmlns="http://www.w3.org/2000/svg">
<path d="M4.75 17.8129C5.40584 17.8129 5.9375 18.3445 5.9375 19.0004C5.93772 25.7238 11.0189 31.262 17.5498 31.9828C17.609 31.9892 17.6599 31.9734 17.71 31.9252C17.7659 31.8711 17.8125 31.7802 17.8125 31.6664V30.8754C17.8125 30.2195 18.3442 29.6879 19 29.6879C19.6558 29.6879 20.1875 30.2195 20.1875 30.8754V31.6664C20.1875 33.1572 18.9488 34.5263 17.2891 34.3431C9.56795 33.491 3.56272 26.948 3.5625 19.0004C3.5625 18.3445 4.09416 17.8129 4.75 17.8129ZM19 11.8754C20.6394 11.8754 22.0166 12.944 22.4072 14.39H22.5186C24.9476 14.39 26.917 16.2667 26.917 18.5814V21.934C26.9168 24.2485 24.9474 26.1253 22.5186 26.1254H15.4814C13.0526 26.1253 11.0832 24.2485 11.083 21.934V18.5814C11.083 16.2667 13.0524 14.39 15.4814 14.39H15.5928C15.9834 12.944 17.3606 11.8754 19 11.8754ZM19 17.4174C17.6883 17.4174 16.625 18.4807 16.625 19.7924C16.6254 21.1037 17.6886 22.1674 19 22.1674C20.3114 22.1674 21.3746 21.1037 21.375 19.7924C21.375 18.4807 20.3117 17.4174 19 17.4174ZM17.8125 6.33337C17.8125 4.84257 19.0512 3.47349 20.7109 3.65662C28.4322 4.50876 34.4375 11.0525 34.4375 19.0004C34.4373 19.656 33.9057 20.1879 33.25 20.1879C32.5943 20.1879 32.0627 19.656 32.0625 19.0004C32.0625 12.2767 26.9812 6.73776 20.4502 6.01697C20.3908 6.0105 20.3403 6.02703 20.29 6.07556C20.2341 6.12962 20.1875 6.21959 20.1875 6.33337V7.12537C20.1873 7.78101 19.6557 8.31287 19 8.31287C18.3443 8.31287 17.8127 7.78101 17.8125 7.12537V6.33337Z" fill="white"/>
</svg>
