<svg width="57" height="44" viewBox="0 0 57 44" fill="none" xmlns="http://www.w3.org/2000/svg">
<path d="M45.5546 25.8195H41.4321L46.1512 12.4397L41.631 0H45.7535L47.67 6.0571L48.773 10.7039H49.7132L50.798 6.0571L52.6965 0H56.819L52.4253 12.5843L56.9998 25.8195H52.8773L50.8523 19.437L49.7132 14.537H48.773L47.6158 19.437L45.5546 25.8195Z" fill="#001540"/>
<path d="M31.8091 25.8195H27.5782V3.83315H22.6602V0H36.709V3.83315H31.8091V25.8195Z" fill="#001540"/>
<path d="M4.23093 25.8195H0V0H6.70802L8.44378 9.92642L8.64267 21.9683H9.31167L9.49247 9.92642L11.2463 0H17.9363V25.8195H13.6872V17.9543L14.519 3.83315H13.8138L12.8736 18.2256L11.1921 25.7834H6.76226L5.09881 18.2256L4.10437 3.83315H3.45345L4.23093 17.9543V25.8195Z" fill="#001540"/>
<path d="M51.7714 43.6336H50.6167L52.6245 37.3431L50.7287 31.3284H51.892L52.6934 34.2237L53.4172 36.8433H53.8826L54.615 34.2237L55.4078 31.3284H56.5539L54.7012 37.3776L56.6831 43.6336H55.5112L54.6581 40.5917L53.8826 37.9463H53.4172L52.6503 40.5917L51.7714 43.6336Z" fill="#656565"/>
<path d="M45.5066 43.6336H44.395V32.4486H45.5066V36.0333H45.7738C45.9748 35.7288 46.2075 35.5048 46.4717 35.3612C46.7417 35.2118 47.1094 35.1371 47.5747 35.1371C48.2239 35.1371 48.7064 35.2808 49.0224 35.568C49.3383 35.8495 49.4963 36.3234 49.4963 36.9898V43.6336H48.3933V36.895C48.3933 36.6078 48.3014 36.401 48.1176 36.2746C47.9395 36.1425 47.6494 36.0764 47.2473 36.0764C46.3856 36.0764 45.8053 36.3378 45.5066 36.8606V43.6336Z" fill="#656565"/>
<path d="M42.9818 38.1962H41.896C41.919 37.9951 41.9276 37.7654 41.9219 37.5068C41.9219 37.2483 41.9219 37.0473 41.9219 36.9036C41.9161 36.5992 41.7955 36.3895 41.56 36.2746C41.3302 36.1597 40.951 36.1023 40.4225 36.1023C39.8825 36.1023 39.4976 36.1597 39.2678 36.2746C39.038 36.3895 38.9203 36.5992 38.9145 36.9036C38.8743 37.8056 38.8542 38.6472 38.8542 39.4285C38.8542 40.204 38.8743 41.0398 38.9145 41.936C38.9203 42.252 39.038 42.4703 39.2678 42.5909C39.4976 42.7116 39.8796 42.7719 40.4139 42.7719C40.9424 42.7719 41.3244 42.7116 41.56 42.5909C41.7955 42.4703 41.9161 42.252 41.9219 41.936C41.9219 41.7809 41.9219 41.5942 41.9219 41.3759C41.9276 41.1519 41.919 40.9077 41.896 40.6435H42.9818C43.0105 40.8101 43.022 41.0054 43.0162 41.2294C43.0162 41.4477 43.0105 41.6459 42.999 41.824C42.9645 42.5019 42.752 42.9902 42.3613 43.2889C41.9764 43.5876 41.3273 43.737 40.4139 43.737C39.4947 43.737 38.8341 43.5876 38.432 43.2889C38.0356 42.9902 37.823 42.5019 37.7943 41.824C37.7713 41.3989 37.7541 40.8991 37.7426 40.3246C37.7368 39.7502 37.7368 39.1728 37.7426 38.5926C37.7541 38.0124 37.7713 37.5068 37.7943 37.076C37.823 36.3809 38.0384 35.884 38.4406 35.5852C38.8484 35.2865 39.5091 35.1371 40.4225 35.1371C41.3302 35.1371 41.9822 35.2836 42.3786 35.5766C42.7807 35.8696 42.9875 36.3522 42.999 37.0243C43.0105 37.1966 43.0162 37.3948 43.0162 37.6189C43.022 37.8372 43.0105 38.0296 42.9818 38.1962Z" fill="#656565"/>
<path d="M33.8912 43.737C32.9433 43.737 32.2654 43.5876 31.8576 43.2889C31.4554 42.9902 31.24 42.5019 31.2113 41.824C31.1883 41.3989 31.1711 40.8991 31.1596 40.3246C31.1538 39.7502 31.1538 39.1728 31.1596 38.5926C31.1711 38.0124 31.1883 37.5068 31.2113 37.076C31.24 36.3809 31.4612 35.884 31.8748 35.5852C32.2942 35.2865 32.9663 35.1371 33.8912 35.1371C34.7644 35.1371 35.3963 35.2836 35.787 35.5766C36.1776 35.8696 36.393 36.3522 36.4332 37.0243C36.4447 37.2254 36.4562 37.5758 36.4677 38.0756C36.4792 38.5754 36.462 39.1067 36.416 39.6697H32.2884C32.2884 40.0316 32.2913 40.3993 32.297 40.7727C32.3028 41.1461 32.3143 41.5339 32.3315 41.936C32.3372 42.252 32.4579 42.4703 32.6934 42.5909C32.929 42.7116 33.3167 42.7719 33.8567 42.7719C34.391 42.7719 34.7673 42.7116 34.9856 42.5909C35.2039 42.4703 35.3245 42.252 35.3475 41.936C35.3647 41.6201 35.3647 41.1892 35.3475 40.6435H36.416C36.4447 40.8101 36.4562 41.0054 36.4505 41.2294C36.4505 41.4477 36.4447 41.6459 36.4332 41.824C36.393 42.5019 36.1862 42.9902 35.8128 43.2889C35.4451 43.5876 34.8046 43.737 33.8912 43.737ZM32.2884 38.7563H35.3647C35.3762 38.3657 35.3819 37.9923 35.3819 37.6361C35.3819 37.2799 35.3705 37.0358 35.3475 36.9036C35.3245 36.6164 35.201 36.4125 34.9769 36.2918C34.7529 36.1655 34.391 36.1023 33.8912 36.1023C33.334 36.1023 32.9347 36.1655 32.6934 36.2918C32.4579 36.4125 32.3372 36.6164 32.3315 36.9036C32.3143 37.2368 32.2999 37.5557 32.2884 37.8601C32.2827 38.1646 32.2827 38.4633 32.2884 38.7563Z" fill="#656565"/>
<path d="M28.0571 43.6336H26.8593V32.4314H24.5068V31.3284H30.4182V32.4314H28.0571V43.6336Z" fill="#656565"/>
<path d="M23.421 33.6895H22.3094V32.4486H23.421V33.6895ZM23.421 43.6336H22.3008V35.2492H23.421V43.6336Z" fill="#656565"/>
<path d="M17.2945 43.737C16.6453 43.737 16.1628 43.5934 15.8468 43.3061C15.5309 43.0189 15.3643 42.545 15.347 41.8843C15.324 41.4132 15.3068 40.8962 15.2953 40.3332C15.2896 39.7703 15.2896 39.1987 15.2953 38.6184C15.3068 38.0382 15.324 37.4953 15.347 36.9898C15.3643 36.3234 15.5337 35.8495 15.8554 35.568C16.1829 35.2808 16.6683 35.1371 17.3117 35.1371C17.7885 35.1371 18.1619 35.2118 18.4319 35.3612C18.7077 35.5048 18.9461 35.7288 19.1472 36.0333H19.3712V32.4486H20.4742V43.6336H19.3712V42.8408H19.1213C18.926 43.128 18.6905 43.3492 18.4147 43.5043C18.1447 43.6594 17.7713 43.737 17.2945 43.737ZM17.6133 42.7977C18.4808 42.7977 19.0667 42.5363 19.3712 42.0136V36.8606C19.0725 36.3378 18.4894 36.0764 17.6219 36.0764C17.2198 36.0764 16.9268 36.1425 16.743 36.2746C16.5649 36.401 16.473 36.6078 16.4672 36.895C16.4328 37.7567 16.4184 38.6328 16.4242 39.5232C16.4299 40.4079 16.4443 41.2265 16.4672 41.9791C16.4787 42.2606 16.5707 42.4674 16.743 42.5995C16.9211 42.7317 17.2112 42.7977 17.6133 42.7977Z" fill="#656565"/>
<path d="M11.4522 43.737C10.5044 43.737 9.82648 43.5876 9.4186 43.2889C9.01647 42.9902 8.80104 42.5019 8.77232 41.824C8.74934 41.3989 8.73211 40.8991 8.72062 40.3246C8.71487 39.7502 8.71487 39.1728 8.72062 38.5926C8.73211 38.0124 8.74934 37.5068 8.77232 37.076C8.80104 36.3809 9.02221 35.884 9.43583 35.5852C9.8552 35.2865 10.5273 35.1371 11.4522 35.1371C12.3254 35.1371 12.9573 35.2836 13.348 35.5766C13.7386 35.8696 13.9541 36.3522 13.9943 37.0243C14.0058 37.2254 14.0172 37.5758 14.0287 38.0756C14.0402 38.5754 14.023 39.1067 13.977 39.6697H9.84945C9.84945 40.0316 9.85233 40.3993 9.85807 40.7727C9.86382 41.1461 9.87531 41.5339 9.89254 41.936C9.89828 42.252 10.0189 42.4703 10.2545 42.5909C10.49 42.7116 10.8778 42.7719 11.4178 42.7719C11.952 42.7719 12.3283 42.7116 12.5466 42.5909C12.7649 42.4703 12.8855 42.252 12.9085 41.936C12.9258 41.6201 12.9258 41.1892 12.9085 40.6435H13.977C14.0058 40.8101 14.0172 41.0054 14.0115 41.2294C14.0115 41.4477 14.0058 41.6459 13.9943 41.824C13.9541 42.5019 13.7472 42.9902 13.3738 43.2889C13.0062 43.5876 12.3656 43.737 11.4522 43.737ZM9.84945 38.7563H12.9258C12.9372 38.3657 12.943 37.9923 12.943 37.6361C12.943 37.2799 12.9315 37.0358 12.9085 36.9036C12.8855 36.6164 12.762 36.4125 12.538 36.2918C12.3139 36.1655 11.952 36.1023 11.4522 36.1023C10.895 36.1023 10.4957 36.1655 10.2545 36.2918C10.0189 36.4125 9.89828 36.6164 9.89254 36.9036C9.87531 37.2368 9.86094 37.5557 9.84945 37.8601C9.84371 38.1646 9.84371 38.4633 9.84945 38.7563Z" fill="#656565"/>
<path d="M1.20639 43.6336H0V31.3284H2.16289L2.98151 36.2918L3.4813 42.4875H3.80875L4.29992 36.2918L5.12716 31.3284H7.28143V43.6336H6.07504V40.0144L6.28185 32.4314H5.91131L5.04961 40.0833L4.42056 43.5905H2.86087L2.24044 40.0833L1.37012 32.4314H1.0082L1.20639 40.0144V43.6336Z" fill="#656565"/>
</svg>
