<svg width="15" height="18" viewBox="0 0 15 18" fill="none" xmlns="http://www.w3.org/2000/svg">
<path d="M8.22896 1.3634C8.87536 0.6034 9.96796 0.038 10.8696 0C10.9846 1.0558 10.5614 2.113 9.93576 2.8748C9.30916 3.6352 8.28356 4.2276 7.27696 4.1486C7.14016 3.1156 7.64736 2.0384 8.22896 1.3634ZM13.3582 15.7654C12.61 16.8626 11.8362 17.9532 10.6146 17.976C9.41236 17.9988 9.02696 17.2616 7.65496 17.2616C6.28156 17.2616 5.85176 17.9532 4.71676 17.9988C3.53736 18.0432 2.64036 16.8138 1.88636 15.7214C0.345756 13.488 -0.830644 9.4062 0.750956 6.6516C1.53416 5.2836 2.93776 4.4182 4.45836 4.3952C5.61676 4.3738 6.71096 5.1786 7.41816 5.1786C8.12696 5.1786 9.45516 4.2124 10.8512 4.3542C11.4356 4.3784 13.0758 4.5904 14.1294 6.1366C14.046 6.1914 12.1716 7.2856 12.1942 9.5648C12.217 12.2874 14.5726 13.1922 14.6 13.2046C14.5784 13.2686 14.2232 14.4966 13.3582 15.7654Z" fill="#10141A"/>
</svg>
