<svg width="20" height="20" viewBox="0 0 20 20" fill="none" xmlns="http://www.w3.org/2000/svg">
<g clip-path="url(#clip0_970_594)">
<path d="M4.38845 8.1375C4.77835 6.95787 5.53083 5.93151 6.53854 5.20483C7.54626 4.47815 8.75772 4.08828 10.0001 4.09083C11.4084 4.09083 12.6818 4.59083 13.6818 5.40917L16.5918 2.5C14.8184 0.954167 12.5459 0 10.0001 0C6.05845 0 2.66511 2.24833 1.03345 5.54167L4.38845 8.1375Z" fill="#EA4335"/>
<path d="M13.3668 15.0108C12.4585 15.5966 11.3052 15.9091 10.0002 15.9091C8.76273 15.9117 7.55584 15.5249 6.55037 14.8036C5.5449 14.0823 4.79179 13.063 4.39767 11.89L1.03101 14.4458C1.85704 16.1177 3.1354 17.5244 4.72086 18.5062C6.30632 19.488 8.13534 20.0055 10.0002 20C12.4443 20 14.7793 19.1308 16.5285 17.5L13.3677 15.0108H13.3668Z" fill="#34A853"/>
<path d="M16.5283 17.5C18.3575 15.7933 19.545 13.2533 19.545 10C19.545 9.40834 19.4542 8.7725 19.3183 8.18167H10V12.0458H15.3633C15.0992 13.345 14.3883 14.3508 13.3675 15.0108L16.5283 17.5Z" fill="#4A90E2"/>
<path d="M4.3976 11.89C4.19373 11.2807 4.09016 10.6424 4.09093 9.99999C4.09093 9.34832 4.1951 8.72249 4.38843 8.13749L1.03343 5.54166C0.347079 6.92723 -0.00673329 8.45376 9.70455e-05 9.99999C9.70455e-05 11.6 0.37093 13.1083 1.03093 14.4458L4.3976 11.89Z" fill="#FBBC05"/>
</g>
<defs>
<clipPath id="clip0_970_594">
<rect width="20" height="20" fill="white"/>
</clipPath>
</defs>
</svg>
