<svg width="20" height="19" viewBox="0 0 20 19" fill="none" xmlns="http://www.w3.org/2000/svg">
<path fill-rule="evenodd" clip-rule="evenodd" d="M15.9545 1.57367C15.7591 0.673927 14.9583 0 14 0H6C5.04174 0 4.24088 0.673927 4.04554 1.57368C3.6595 1.36712 3.21843 1.25 2.75 1.25C1.23122 1.25 0 2.48122 0 4C0 6.38209 1.75347 8.35463 4.04009 8.6973C4.35713 11.4366 6.51916 13.6137 9.25141 13.9538C9.25047 13.9691 9.25 13.9845 9.25 14V17.25H7C6.58579 17.25 6.25 17.5858 6.25 18C6.25 18.4142 6.58579 18.75 7 18.75H13C13.4142 18.75 13.75 18.4142 13.75 18C13.75 17.5858 13.4142 17.25 13 17.25H10.75V14C10.75 13.9845 10.7495 13.9691 10.7486 13.9538C13.4808 13.6137 15.6429 11.4366 15.9599 8.6973C18.2465 8.35463 20 6.38209 20 4C20 2.48122 18.7688 1.25 17.25 1.25C16.7816 1.25 16.3405 1.36712 15.9545 1.57367ZM16 4V7.16303C17.4333 6.82445 18.5 5.53679 18.5 4C18.5 3.30964 17.9404 2.75 17.25 2.75C16.5596 2.75 16 3.30964 16 4ZM2.75 2.75C3.44036 2.75 4 3.30964 4 4L4 7.16303C2.56665 6.82445 1.5 5.53679 1.5 4C1.5 3.30964 2.05964 2.75 2.75 2.75Z" fill="#008660"/>
</svg>
