<svg width="24" height="24" viewBox="0 0 24 24" fill="none" xmlns="http://www.w3.org/2000/svg">
<path d="M15.494 6.7496C16.8133 7.48008 17.8434 8.70032 18.3153 10.2105L19.5653 14.2105C20.7726 18.0741 17.8866 21.9996 13.8387 21.9996H10.161C6.11329 21.9995 3.22719 18.074 4.43445 14.2105L5.68445 10.2105C6.15637 8.70038 7.18654 7.48009 8.50574 6.7496H15.494ZM11.9999 8.7496C11.5858 8.74966 11.2501 9.08561 11.2499 9.4996V10.3463C10.144 10.6339 9.25007 11.5426 9.24988 12.7496C9.24988 14.2212 10.5783 15.2495 11.9999 15.2496C12.7872 15.2496 13.2496 15.7883 13.2499 16.2496C13.2499 16.7109 12.7874 17.2496 11.9999 17.2496C11.2124 17.2496 10.7499 16.7109 10.7499 16.2496C10.7497 15.8356 10.414 15.4996 9.99988 15.4996C9.58585 15.4997 9.25009 15.8356 9.24988 16.2496C9.24988 17.4567 10.1441 18.3642 11.2499 18.6519V19.4996C11.2499 19.9138 11.5857 20.2495 11.9999 20.2496C12.4141 20.2496 12.7499 19.9138 12.7499 19.4996V18.6519C13.8557 18.3642 14.7499 17.4567 14.7499 16.2496C14.7496 14.7782 13.4213 13.7496 11.9999 13.7496C11.2124 13.7496 10.7499 13.2109 10.7499 12.7496C10.7501 12.2884 11.2126 11.7497 11.9999 11.7496C12.7872 11.7496 13.2496 12.2883 13.2499 12.7496C13.2499 13.1638 13.5857 13.4995 13.9999 13.4996C14.4141 13.4996 14.7499 13.1638 14.7499 12.7496C14.7497 11.5426 13.8557 10.6339 12.7499 10.3463V9.4996C12.7497 9.08557 12.414 8.7496 11.9999 8.7496ZM13.2528 2.10995C15.198 1.48244 16.7642 3.67945 15.6024 5.2496H8.39832C7.23603 3.67945 8.80163 1.48249 10.7469 2.10995L11.6747 2.40878C11.8859 2.47693 12.1138 2.47693 12.3251 2.40878L13.2528 2.10995Z" fill="white"/>
</svg>
