<svg width="25" height="25" viewBox="0 0 25 25" fill="none" xmlns="http://www.w3.org/2000/svg">
<path d="M1.83149 16.4631C1.74024 16.4568 1.69682 16.5286 1.64333 16.5815C1.37526 16.8477 1.09711 17.1045 0.845401 17.3847C0.540199 17.724 0.470349 18.1363 0.509994 18.5838C0.596835 19.5778 1.05936 20.4131 1.62445 21.1955C2.35505 22.2084 3.25115 23.0556 4.33037 23.6927C4.89169 24.0244 5.47692 24.3115 6.14207 24.3788C6.25471 24.3901 6.3189 24.5186 6.44853 24.4978C6.77954 24.4455 7.12187 24.375 7.38239 24.1799C7.77129 23.8878 8.10355 23.5215 8.42763 23.1545C8.44839 23.1312 8.45154 23.1092 8.45028 23.0827" fill="white"/>
<path d="M1.83149 16.4631C1.74024 16.4568 1.69682 16.5286 1.64333 16.5815C1.37526 16.8477 1.09711 17.1045 0.845401 17.3847C0.540199 17.724 0.470349 18.1363 0.509994 18.5838C0.596835 19.5778 1.05936 20.4131 1.62445 21.1955C2.35505 22.2084 3.25115 23.0556 4.33037 23.6927C4.89169 24.0244 5.47692 24.3115 6.14207 24.3788C6.25471 24.3901 6.3189 24.5186 6.44853 24.4978C6.77954 24.4455 7.12187 24.375 7.38239 24.1799C7.77129 23.8878 8.10355 23.5215 8.42763 23.1545C8.44839 23.1312 8.45154 23.1092 8.45028 23.0827" stroke="#37A2D7" stroke-linecap="round" stroke-linejoin="round"/>
<path d="M16.6933 1.50291C16.5114 1.73644 16.2987 1.94291 16.0779 2.13553C15.5191 2.62275 15.4605 3.23838 15.5876 3.90563C15.7645 4.83034 16.2352 5.6197 16.7934 6.35116C17.4119 7.16193 18.1469 7.86254 19.0009 8.42907C19.6182 8.83886 20.2676 9.18193 21.0033 9.3223C21.6697 9.44946 22.2807 9.38462 22.7734 8.8332C23.1208 8.44481 23.5065 8.09041 23.8766 7.72217C24.1283 7.47163 24.3284 7.20284 24.3838 6.8283C24.4052 6.68352 24.5499 6.5293 24.4819 6.382C24.3208 6.03264 24.307 5.64677 24.1622 5.29363C23.7985 4.40418 23.2756 3.61985 22.6274 2.91609C22.0095 2.24506 21.3273 1.6502 20.5313 1.19635C19.9291 0.853284 19.3061 0.571277 18.6007 0.509588C18.1079 0.466783 17.6712 0.559317 17.3037 0.911196C17.103 1.10319 16.9393 1.33609 16.6927 1.47836" fill="white"/>
<path d="M16.6933 1.50291C16.5114 1.73644 16.2987 1.94291 16.0779 2.13553C15.5191 2.62275 15.4605 3.23838 15.5876 3.90563C15.7645 4.83034 16.2352 5.6197 16.7934 6.35116C17.4119 7.16193 18.1469 7.86254 19.0009 8.42907C19.6182 8.83886 20.2676 9.18193 21.0033 9.3223C21.6697 9.44946 22.2807 9.38462 22.7734 8.8332C23.1208 8.44481 23.5065 8.09041 23.8766 7.72216C24.1283 7.47163 24.3284 7.20284 24.3838 6.8283C24.4052 6.68352 24.5499 6.5293 24.4819 6.382C24.3208 6.03264 24.307 5.64677 24.1622 5.29363C23.7985 4.40418 23.2756 3.61985 22.6274 2.91609C22.0095 2.24506 21.3273 1.6502 20.5313 1.19635C19.9291 0.853284 19.3061 0.571277 18.6007 0.509588C18.1079 0.466783 17.6712 0.559317 17.3037 0.911196C17.103 1.10319 16.9393 1.33609 16.6927 1.47836" stroke="#37A2D7" stroke-linecap="round" stroke-linejoin="round"/>
<path d="M9.41563 12.1518C8.40374 11.4329 7.32263 10.8752 6.07099 10.7147C5.25796 10.6108 4.53743 10.7594 3.94653 11.3933C3.36382 12.0184 2.7446 12.6094 2.13672 13.2112C1.76796 13.5763 1.58358 14.0214 1.55023 14.5312C1.5131 15.0965 1.61127 15.6435 1.78369 16.1805C2.16126 17.3576 2.81005 18.3824 3.57715 19.3348C4.22153 20.1342 4.95339 20.8487 5.7639 21.4819C6.50583 22.0611 7.29872 22.5489 8.16587 22.9209C8.8455 23.2124 9.54526 23.3886 10.2866 23.3641C10.7598 23.3484 11.2022 23.2306 11.5583 22.8939C12.3166 22.1763 13.0573 21.4404 13.7709 20.6781C14.0899 20.3369 14.1982 19.9095 14.2202 19.4544C14.2536 18.7645 14.0969 18.1105 13.8426 17.4753C13.5676 16.7885 13.2429 16.1289 12.7835 15.5434" fill="white"/>
<path d="M9.41563 12.1518C8.40374 11.4329 7.32263 10.8752 6.07099 10.7147C5.25796 10.6108 4.53743 10.7594 3.94653 11.3933C3.36382 12.0184 2.7446 12.6094 2.13672 13.2112C1.76796 13.5763 1.58358 14.0214 1.55023 14.5312C1.5131 15.0965 1.61127 15.6435 1.78369 16.1805C2.16126 17.3576 2.81005 18.3824 3.57715 19.3348C4.22153 20.1342 4.95339 20.8487 5.7639 21.4819C6.50583 22.0611 7.29872 22.5489 8.16587 22.9209C8.8455 23.2124 9.54526 23.3886 10.2866 23.3641C10.7598 23.3484 11.2022 23.2306 11.5583 22.8939C12.3166 22.1763 13.0573 21.4404 13.7709 20.6781C14.0899 20.3369 14.1982 19.9095 14.2202 19.4544C14.2536 18.7645 14.0969 18.1105 13.8426 17.4753C13.5676 16.7885 13.2429 16.1289 12.7835 15.5434" stroke="#37A2D7" stroke-linecap="round" stroke-linejoin="round"/>
<path d="M16.6694 1.45631C16.2075 1.23662 15.7142 1.16046 15.2088 1.15101C14.7558 1.14283 14.3241 1.21333 13.9327 1.47268C13.8515 1.52618 13.7697 1.58598 13.7061 1.64893C12.9931 2.34891 12.2827 3.05267 11.5842 3.76713C11.1311 4.23043 11.0222 4.82718 11.0713 5.43714C11.1726 6.70428 11.7151 7.81406 12.4092 8.85207C13.2864 10.1639 14.3732 11.273 15.6519 12.2066C16.4913 12.819 17.3792 13.3214 18.3672 13.6317C19.0506 13.8464 19.7523 13.9446 20.4615 13.7305C20.7434 13.6456 20.9844 13.4913 21.1914 13.2836C21.8666 12.6082 22.5431 11.9346 23.2165 11.2567C23.7262 10.743 23.8092 10.0915 23.7501 9.42049C23.7149 9.01825 23.6519 8.60909 23.4524 8.24147" fill="white"/>
<path d="M16.6694 1.45631C16.2075 1.23662 15.7142 1.16046 15.2088 1.15101C14.7558 1.14283 14.3241 1.21333 13.9327 1.47268C13.8515 1.52618 13.7697 1.58598 13.7061 1.64893C12.9931 2.34891 12.2827 3.05267 11.5842 3.76713C11.1311 4.23043 11.0222 4.82718 11.0713 5.43714C11.1726 6.70428 11.7151 7.81406 12.4092 8.85207C13.2864 10.1639 14.3732 11.273 15.6519 12.2066C16.4913 12.819 17.3792 13.3214 18.3672 13.6317C19.0506 13.8464 19.7523 13.9446 20.4615 13.7305C20.7434 13.6456 20.9844 13.4913 21.1914 13.2836C21.8666 12.6082 22.5431 11.9346 23.2165 11.2567C23.7262 10.743 23.8092 10.0915 23.7501 9.42049C23.7149 9.01825 23.6519 8.60909 23.4524 8.24147" stroke="#37A2D7" stroke-linecap="round" stroke-linejoin="round"/>
<path d="M13.207 3.95346C13.2662 4.43438 13.4424 4.88005 13.6331 5.31943C14.0949 6.38514 14.7532 7.3281 15.519 8.19112C16.3534 9.13093 17.2904 9.95681 18.3634 10.6234C19.1091 11.0867 19.895 11.4525 20.7439 11.6803C20.8434 11.7074 20.9478 11.7131 21.0498 11.7282" fill="white"/>
<path d="M13.207 3.95346C13.2662 4.43438 13.4424 4.88005 13.6331 5.31943C14.0949 6.38514 14.7532 7.3281 15.519 8.19112C16.3534 9.13093 17.2904 9.95681 18.3634 10.6234C19.1091 11.0867 19.895 11.4525 20.7439 11.6803C20.8434 11.7074 20.9478 11.7131 21.0498 11.7282" stroke="#37A2D7" stroke-linecap="round" stroke-linejoin="round"/>
<path d="M15.7978 12.3879C15.57 12.6699 15.2969 12.9078 15.0433 13.164C14.363 13.8501 13.6784 14.5312 12.995 15.2148C12.2883 15.9218 11.5734 16.6205 10.8812 17.3412C10.7101 17.5194 10.5427 17.5452 10.3337 17.4999C8.83228 17.1744 7.85626 16.2894 7.46296 14.7906C7.42269 14.6382 7.42583 14.4752 7.38556 14.3008C8.00981 13.6764 8.64224 13.0438 9.27404 12.4118C10.3337 11.3517 11.3935 10.2911 12.4544 9.23227C12.4815 9.20521 12.4979 9.15988 12.5476 9.16051" fill="white"/>
<path d="M15.7978 12.3879C15.57 12.6699 15.2969 12.9078 15.0433 13.164C14.363 13.8501 13.6784 14.5312 12.995 15.2148C12.2883 15.9218 11.5734 16.6205 10.8812 17.3412C10.7101 17.5194 10.5427 17.5452 10.3337 17.4999C8.83228 17.1744 7.85626 16.2894 7.46296 14.7906C7.42269 14.6382 7.42583 14.4752 7.38556 14.3008C8.00981 13.6764 8.64224 13.0438 9.27404 12.4118C10.3337 11.3517 11.3935 10.2911 12.4544 9.23227C12.4815 9.20521 12.4979 9.15988 12.5476 9.16051" stroke="#37A2D7" stroke-linecap="round" stroke-linejoin="round"/>
<path d="M3.7395 13.7538C3.86032 14.3959 4.13847 14.9763 4.44682 15.5441C5.1944 16.9226 6.21132 18.0828 7.39312 19.0981C8.38801 19.9529 9.48611 20.6473 10.7359 21.0772C10.8705 21.1231 11.0102 21.1754 11.1587 21.1754" fill="white"/>
<path d="M3.7395 13.7538C3.86032 14.3959 4.13847 14.9763 4.44682 15.5441C5.1944 16.9226 6.21132 18.0828 7.39312 19.0981C8.38801 19.9529 9.48611 20.6473 10.7359 21.0772C10.8705 21.1231 11.0102 21.1754 11.1587 21.1754" stroke="#37A2D7" stroke-linecap="round" stroke-linejoin="round"/>
<path d="M17.0935 2.68129C17.1281 3.09297 17.3075 3.46436 17.5025 3.80743C18.3772 5.34714 19.5685 6.57966 21.1448 7.41686C21.4167 7.56102 21.6986 7.67999 21.9925 7.77063" fill="white"/>
<path d="M17.0935 2.68129C17.1281 3.09297 17.3075 3.46436 17.5025 3.80743C18.3772 5.34714 19.5685 6.57966 21.1448 7.41686C21.4167 7.56102 21.6986 7.67999 21.9925 7.77063" stroke="#37A2D7" stroke-linecap="round" stroke-linejoin="round"/>
</svg>
