<svg width="20" height="22" viewBox="0 0 20 22" fill="none" xmlns="http://www.w3.org/2000/svg">
<path d="M0 13.4444C0 11.3056 0.520833 9.40093 1.5625 7.73056C2.60417 6.06019 3.75 4.65463 5 3.51389C6.25 2.37315 7.39583 1.50231 8.4375 0.901389L10 0V4.03333C10 4.78704 10.2604 5.38287 10.7812 5.82083C11.3021 6.2588 11.8854 6.47778 12.5313 6.47778C12.8854 6.47778 13.224 6.40648 13.5469 6.26389C13.8698 6.1213 14.1667 5.88704 14.4375 5.56111L15 4.88889C16.5 5.74444 17.7083 6.93102 18.625 8.44861C19.5417 9.9662 20 11.6315 20 13.4444C20 15.237 19.5521 16.8718 18.6562 18.3486C17.7604 19.8255 16.5833 20.9917 15.125 21.8472C15.4792 21.3583 15.7552 20.8236 15.9531 20.2431C16.151 19.6625 16.25 19.0463 16.25 18.3944C16.25 17.5796 16.0938 16.8106 15.7812 16.0875C15.4688 15.3644 15.0208 14.7176 14.4375 14.1472L10 9.9L5.59375 14.1472C4.98958 14.738 4.53125 15.3898 4.21875 16.1028C3.90625 16.8157 3.75 17.5796 3.75 18.3944C3.75 19.0463 3.84896 19.6625 4.04688 20.2431C4.24479 20.8236 4.52083 21.3583 4.875 21.8472C3.41667 20.9917 2.23958 19.8255 1.34375 18.3486C0.447917 16.8718 0 15.237 0 13.4444ZM10 13.3222L12.6562 15.8583C13.0104 16.2046 13.2813 16.5917 13.4688 17.0194C13.6563 17.4472 13.75 17.9056 13.75 18.3944C13.75 19.3926 13.3854 20.2431 12.6562 20.9458C11.9271 21.6486 11.0417 22 10 22C8.95833 22 8.07292 21.6486 7.34375 20.9458C6.61458 20.2431 6.25 19.3926 6.25 18.3944C6.25 17.9259 6.34375 17.4727 6.53125 17.0347C6.71875 16.5968 6.98958 16.2046 7.34375 15.8583L10 13.3222Z" fill="white"/>
</svg>
