<svg width="20" height="20" viewBox="0 0 20 20" fill="none" xmlns="http://www.w3.org/2000/svg">
<path d="M3.27456 7.34363H0.0503778C0.117548 7.10738 0.205709 6.88379 0.314861 6.67285C0.424013 6.46191 0.554156 6.25519 0.70529 6.05269L4.58438 0.838263C4.86986 0.450135 5.25189 0.192789 5.73048 0.0662252C6.20907 -0.0603385 6.66667 -0.00549423 7.10327 0.230758L7.80856 0.585136C8.16121 0.770763 8.43409 1.02389 8.6272 1.34452C8.82032 1.66515 8.91688 2.01952 8.91688 2.40765V4.53392L10.7809 4.05298C11.2846 3.91798 11.7716 3.98126 12.2418 4.24283C12.712 4.50439 13.0311 4.87986 13.199 5.36924L14.8363 10.3305L19.1184 14.6337C19.4542 14.9712 19.6851 15.334 19.8111 15.7221C19.937 16.1103 20 16.5237 20 16.9625C20 17.5869 19.8321 18.1437 19.4962 18.6331C19.1604 19.1225 18.7238 19.4853 18.1864 19.7216L6.75063 8.73584C6.26364 8.28021 5.72628 7.93426 5.13854 7.69801C4.5508 7.46176 3.92947 7.34363 3.27456 7.34363ZM12.0907 20C11.5869 20 11.1083 19.9072 10.6549 19.7216C10.2015 19.5359 9.7817 19.2744 9.39547 18.9369L1.20907 11.4696C0.890008 11.1827 0.629723 10.8579 0.428212 10.4951C0.2267 10.1323 0.0839631 9.75678 0 9.36865H3.27456C3.66079 9.36865 4.03443 9.43615 4.39547 9.57115C4.75651 9.70616 5.07977 9.9171 5.36524 10.204L15.5416 20H12.0907Z" fill="white"/>
</svg>
