<svg width="32" height="32" viewBox="0 0 32 32" fill="none" xmlns="http://www.w3.org/2000/svg">
<path d="M29.5996 7.85547C30.9251 7.85547 32 8.93039 32 10.2559C31.9998 11.5812 30.925 12.6553 29.5996 12.6553C28.9176 12.6552 28.3041 12.369 27.8672 11.9121H20.6318L18.4883 31.1992H13.5117L11.4043 11.9473L11.3682 11.9121H4.13281C3.69594 12.369 3.08239 12.6552 2.40039 12.6553C1.075 12.6553 0.000157444 11.5812 0 10.2559C0 8.93039 1.07491 7.85547 2.40039 7.85547C3.13576 7.85559 3.79323 8.18708 4.2334 8.70801H27.7666C28.2068 8.18708 28.8642 7.85559 29.5996 7.85547ZM16 0C17.9882 2.57707e-07 19.5995 1.61148 19.5996 3.59961C19.5996 5.58782 17.9882 7.20019 16 7.2002C14.0118 7.2002 12.4004 5.58782 12.4004 3.59961C12.4005 1.61148 14.0118 0 16 0Z" fill="#111111"/>
</svg>
