<svg width="24" height="24" viewBox="0 0 24 24" fill="none" xmlns="http://www.w3.org/2000/svg">
<path d="M18 2C20.2091 2 22 3.79086 22 6V18C22 20.2091 20.2091 22 18 22H6C3.79086 22 2 20.2091 2 18V6C2 3.79086 3.79086 2 6 2H18ZM13 7.25C12.5858 7.25 12.25 7.58579 12.25 8C12.25 8.41421 12.5858 8.75 13 8.75H14.1895L8.75 14.1895V13C8.75 12.5858 8.41421 12.25 8 12.25C7.58579 12.25 7.25 12.5858 7.25 13V16C7.25 16.4142 7.58579 16.75 8 16.75H11C11.4142 16.75 11.75 16.4142 11.75 16C11.75 15.5858 11.4142 15.25 11 15.25H9.81055L15.25 9.81055V11C15.25 11.4142 15.5858 11.75 16 11.75C16.4142 11.75 16.75 11.4142 16.75 11V8C16.75 7.58579 16.4142 7.25 16 7.25H13Z" fill="#37A2D7"/>
</svg>
